<svg width="32" height="32" viewBox="0 0 32 32" fill="none" xmlns="http://www.w3.org/2000/svg">
<path opacity="0.4" d="M10.9366 17.5968L6.00434 18.033C4.89744 18.033 4 17.1268 4 16.0091C4 14.8914 4.89744 13.9852 6.00434 13.9852L10.9366 14.4214C11.805 14.4214 12.509 15.1323 12.509 16.0091C12.509 16.8874 11.805 17.5968 10.9366 17.5968Z" fill="#163A34"/>
<path d="M27.4997 17.5166C27.4226 17.5945 27.1346 17.9235 26.8641 18.1967C25.2859 19.9077 21.1652 22.7056 19.0096 23.5618C18.6824 23.6984 17.8547 23.9892 17.4111 24.0098C16.9878 24.0098 16.5835 23.9114 16.198 23.7175C15.7166 23.4458 15.3326 23.0169 15.1202 22.5117C14.985 22.1621 14.7726 21.112 14.7726 21.0929C14.5617 19.9459 14.4468 18.0806 14.4468 16.0186C14.4468 14.0564 14.5617 12.2675 14.7348 11.1014C14.7537 11.0808 14.966 9.77808 15.1973 9.33159C15.6206 8.515 16.4482 8.00977 17.334 8.00977H17.4111C17.9886 8.02886 19.2016 8.53556 19.2016 8.55318C21.2423 9.40944 25.2656 12.0722 26.883 13.842C26.883 13.842 27.3397 14.2973 27.5375 14.5807C27.8459 14.989 28.0001 15.4943 28.0001 15.9995C28.0001 16.5635 27.827 17.0878 27.4997 17.5166Z" fill="#163A34"/>
</svg>
